<?xml version="1.0"?>
<svg xmlns="http://www.w3.org/2000/svg" xmlns:xlink="http://www.w3.org/1999/xlink" id="Layer_1" data-name="Layer 1" viewBox="0 0 512 512" width="512" height="512"><defs><linearGradient id="linear-gradient" x1="184.45" y1="478" x2="184.45" y2="45.704" gradientUnits="userSpaceOnUse"><stop offset="0.322" stop-color="#a163f5"/><stop offset="0.466" stop-color="#b074ee"/><stop offset="0.752" stop-color="#d8a1dd"/><stop offset="0.898" stop-color="#efbad3"/></linearGradient><linearGradient id="linear-gradient-2" x1="276.779" y1="478" x2="276.779" y2="45.704" xlink:href="#linear-gradient"/><linearGradient id="linear-gradient-6" x1="238.911" y1="478" x2="238.911" y2="45.704" xlink:href="#linear-gradient"/><linearGradient id="linear-gradient-7" x1="425.625" y1="478" x2="425.625" y2="45.704" xlink:href="#linear-gradient"/></defs><title>Database Pie Chart</title><path d="M135.92,196.56a398.988,398.988,0,0,0,53.83,3.543,408.212,408.212,0,0,0,43.052-2.235,6,6,0,0,0-1.271-11.932A396.236,396.236,0,0,1,189.75,188.1a386.883,386.883,0,0,1-52.2-3.433,6,6,0,0,0-1.626,11.89Z" style="fill:url(#linear-gradient)"/><path d="M276.779,200.1a17.922,17.922,0,1,0-17.922-17.922A17.943,17.943,0,0,0,276.779,200.1Zm0-23.844a5.922,5.922,0,1,1-5.922,5.922A5.929,5.929,0,0,1,276.779,176.259Z" style="fill:url(#linear-gradient-2)"/><path d="M231.531,287.271a396.547,396.547,0,0,1-41.781,2.167,386.828,386.828,0,0,1-52.2-3.433,6,6,0,0,0-1.626,11.89,398.923,398.923,0,0,0,53.83,3.543A408.235,408.235,0,0,0,232.8,299.2a6,6,0,0,0-1.27-11.932Z" style="fill:url(#linear-gradient)"/><path d="M294.7,283.516a17.922,17.922,0,1,0-17.922,17.922A17.943,17.943,0,0,0,294.7,283.516Zm-23.844,0a5.922,5.922,0,1,1,5.922,5.922A5.929,5.929,0,0,1,270.857,283.516Z" style="fill:url(#linear-gradient-2)"/><path d="M231.531,388.605a396.278,396.278,0,0,1-41.781,2.167,386.72,386.72,0,0,1-52.2-3.433,6,6,0,0,0-1.626,11.89,398.988,398.988,0,0,0,53.83,3.543,408.238,408.238,0,0,0,43.051-2.234,6,6,0,0,0-1.27-11.933Z" style="fill:url(#linear-gradient)"/><path d="M437.82,379H351V292.162a5.739,5.739,0,0,0-5-5.954V88.554c0-17.215-17.133-32.851-48.017-44.028-28.969-10.484-67.425-16.258-108.171-16.258S110.768,34.042,81.8,44.526C50.915,55.7,34,71.339,34,88.554V397.839c0,17.223,16.882,32.861,47.762,44.035,28.962,10.48,67.295,16.251,108.05,16.251,28.706,0,56.489-2.894,80.71-8.374a98.726,98.726,0,0,0,173.3-64.778A5.979,5.979,0,0,0,437.82,379ZM259.075,336.31a372.636,372.636,0,0,1-69.325,6.244c-39.4,0-76.219-5.517-103.9-15.535C60.443,317.828,46,305.89,46,294.268V215.35c8,7.6,20.084,14.422,35.762,20.1,28.962,10.48,67.295,16.251,108.05,16.251s79.246-5.771,108.207-16.251C313.7,229.772,326,222.947,334,215.35V286.8a98.8,98.8,0,0,0-58.769,28.293A102.6,102.6,0,0,0,259.075,336.31ZM46,112.484c8,7.6,20.087,14.422,35.767,20.1,28.969,10.484,67.3,16.258,108.045,16.258s79.233-5.774,108.2-16.258c15.68-5.675,27.986-12.5,35.986-20.1v78.927c0,11.622-14.693,23.559-40.1,32.751C266.219,234.179,229.211,239.7,189.812,239.7s-76.25-5.517-103.936-15.534C60.475,214.97,46,203.033,46,191.411ZM85.726,55.81c27.693-10.022,64.636-15.542,104.024-15.542s76.331,5.52,104.024,15.542C319.179,65,333.75,76.938,333.75,88.554S319.179,112.1,293.774,121.3c-27.693,10.023-64.636,15.542-104.024,15.542S113.419,131.32,85.726,121.3C60.321,112.1,45.75,100.168,45.75,88.554S60.321,65,85.726,55.81ZM189.75,446.125c-39.4,0-76.219-5.517-103.9-15.535C60.443,421.4,46,409.461,46,397.839V318.207c8,7.6,20.084,14.423,35.762,20.1,28.962,10.479,67.295,16.251,108.05,16.251a393.392,393.392,0,0,0,63.007-4.937,98.7,98.7,0,0,0,9.01,88.563c.221.346.45.682.675,1.024A366.666,366.666,0,0,1,189.75,446.125Zm216.692.256a86.878,86.878,0,0,1-128.575-6.495,5.922,5.922,0,0,0-.9-1.114q-2.675-3.386-5.047-7.07a86.683,86.683,0,0,1-3.7-87.094c.081-.143.154-.289.223-.439A89.471,89.471,0,0,1,283.61,323.54,86.022,86.022,0,0,1,339,298.363v86.584A6.076,6.076,0,0,0,345.035,391h86.579A86.74,86.74,0,0,1,406.442,446.381Z" style="fill:url(#linear-gradient-6)"/><path d="M449.32,281.172a99.773,99.773,0,0,0-70.088-28.857,6.2,6.2,0,0,0-6.232,6V351.1c0,3.313,3.151,5.9,6.465,5.9H472.25a5.958,5.958,0,0,0,6-5.95,99.178,99.178,0,0,0-28.856-69.83C449.37,281.2,449.345,281.2,449.32,281.172ZM385,345V264.522a87.333,87.333,0,0,1,55.64,25.122c14.931,15.21,23.974,34.356,25.4,55.356Z" style="fill:url(#linear-gradient-7)"/></svg>
